<svg xmlns="http://www.w3.org/2000/svg" xmlns:xlink="http://www.w3.org/1999/xlink" width="133.443" height="62.832" viewBox="0 0 133.443 62.832">
  <defs>
    <clipPath id="clip-path">
      <path id="Path_3000" data-name="Path 3000" d="M2694.4,3551.808l12.144,14.5h26.267l-2.23-17.115Z" transform="translate(-2694.398 -3549.19)" fill="#2494ab"/>
    </clipPath>
  </defs>
  <g id="Group_1022" data-name="Group 1022" transform="translate(-2624.618 -3481.625)">
    <path id="Path_2995" data-name="Path 2995" d="M2728.108,3527.677v-9.811h-28.842a18.685,18.685,0,0,1-4.973,9.811Z" transform="translate(-22.53 -11.719)" fill="#2494ab"/>
    <path id="Path_2996" data-name="Path 2996" d="M2726.445,3481.671h-40.966a20.856,20.856,0,0,1,9.629,10.354h31.337Z" transform="translate(-19.68 -0.015)" fill="#2494ab"/>
    <path id="Path_2997" data-name="Path 2997" d="M2780.117,3481.857v-.232h-28.143v25.095h11.212v-14.735h14.207c6.2,0,10.363,3.589,10.363,8.931s-4.165,8.438-10.363,8.438h-25.419v32.137h11.212V3519.22h15.123c12.326,0,20.935-7.694,20.935-18.71C2799.244,3490.042,2791.469,3482.574,2780.117,3481.857Z" transform="translate(-41.182)" fill="#283a66"/>
    <rect id="Rectangle_614" data-name="Rectangle 614" width="11.291" height="60.026" transform="translate(2624.618 3481.656)" fill="#283a66"/>
    <g id="Group_837" data-name="Group 837" transform="translate(2638.29 3481.63)">
      <path id="Path_2998" data-name="Path 2998" d="M2683.521,3541.685l-18.793-21.723c11.271-2.288,15-10.508,15-18.643,0-10.254-7.373-19.575-21.354-19.66-2.684,0-3.778-.007-8.894-.016l-4.654-.01v10.45h13.548c7.033,0,10.169,4.745,10.169,9.491s-3.051,9.491-10.169,9.491H2646.6l22.786,29.914.709.706" transform="translate(-2644.824 -3481.632)" fill="#283a66"/>
    </g>
    <g id="Group_839" data-name="Group 839" transform="translate(2671.834 3527.342)">
      <g id="Group_838" data-name="Group 838" clip-path="url(#clip-path)">
        <path id="Path_2999" data-name="Path 2999" d="M2726.445,3555.322h-40.966a20.657,20.657,0,0,1,9.629,10.192h31.337Z" transform="translate(-2691.514 -3551.173)" fill="#2494ab"/>
      </g>
    </g>
  </g>
</svg>
