<svg xmlns="http://www.w3.org/2000/svg" width="23.199" height="23.199" viewBox="0 0 23.199 23.199">
  <path id="Icon_ionic-logo-whatsapp" data-name="Icon ionic-logo-whatsapp" d="M14.06,2.25a11.345,11.345,0,0,0-11.389,11.3,11.184,11.184,0,0,0,1.634,5.835L2.25,25.449l6.305-2a11.408,11.408,0,0,0,16.894-9.9A11.345,11.345,0,0,0,14.06,2.25Zm5.663,15.593a2.942,2.942,0,0,1-2.014,1.3c-.534.028-.549.414-3.461-.851a11.883,11.883,0,0,1-4.8-4.54,5.585,5.585,0,0,1-1.074-3.027A3.227,3.227,0,0,1,9.48,8.355a1.115,1.115,0,0,1,.789-.332c.229,0,.378-.007.548,0s.424-.035.645.551.748,2.027.815,2.174a.528.528,0,0,1,.005.506,1.978,1.978,0,0,1-.309.47c-.152.163-.32.365-.455.489-.151.138-.309.289-.15.584a8.715,8.715,0,0,0,1.542,2.058,7.946,7.946,0,0,0,2.284,1.518c.286.156.456.138.633-.048s.758-.815.963-1.1.4-.226.66-.121,1.665.857,1.951,1.012.476.235.544.357A2.392,2.392,0,0,1,19.723,17.843Z" transform="translate(-2.25 -2.25)" fill="#2189a1"/>
</svg>
